<?xml version="1.0" encoding="utf-8"?>
<!-- Generator: Adobe Illustrator 19.1.0, SVG Export Plug-In . SVG Version: 6.00 Build 0)  -->
<!DOCTYPE svg PUBLIC "-//W3C//DTD SVG 1.1//EN" "http://www.w3.org/Graphics/SVG/1.1/DTD/svg11.dtd">
<svg version="1.1" id="icon" xmlns="http://www.w3.org/2000/svg" xmlns:xlink="http://www.w3.org/1999/xlink" x="0px" y="0px"
	 viewBox="0 0 80 80" style="enable-background:new 0 0 80 80;" xml:space="preserve">
<g id="gfxblack">
	<rect x="18.8" y="24" width="42.4" height="6.7"/>
	<path d="M57.3,34.9H22.7V17.3h34.7V34.9z M24.7,32.9h30.7V19.3H24.7V32.9z"/>
	<path d="M64,30.7H16c-1.9,0-3.5,1.6-3.5,3.5v11.2c0,4.3,3.5,7.9,7.8,8v-8.5h39.3v8.5c4.3-0.1,7.8-3.6,7.8-8V34.2
		C67.5,32.3,65.9,30.7,64,30.7z"/>
</g>
<g id="gfxwhite">
	<path style="fill:#FFFFFF;" d="M24.7,45.2v15.5h30.7V45.2H24.7z M37.8,55.7h-9.7v-1h9.7V55.7z M52,52.5H28v-1h24V52.5z M52,49.2H28
		v-1h24V49.2z"/>
	<rect x="24.7" y="19.3" style="fill:#FFFFFF;" width="30.7" height="11.4"/>
	<circle style="fill:#FFFFFF;" cx="63" cy="35.2" r="1.8"/>
</g>
</svg>
