<?xml version="1.0" encoding="utf-8"?>
<!-- Generator: Adobe Illustrator 19.1.0, SVG Export Plug-In . SVG Version: 6.00 Build 0)  -->
<!DOCTYPE svg PUBLIC "-//W3C//DTD SVG 1.1//EN" "http://www.w3.org/Graphics/SVG/1.1/DTD/svg11.dtd">
<svg version="1.1" id="icon" xmlns="http://www.w3.org/2000/svg" xmlns:xlink="http://www.w3.org/1999/xlink" x="0px" y="0px"
	 viewBox="0 0 80 80" style="enable-background:new 0 0 80 80;" xml:space="preserve">
<g id="gfxblack">
	<rect x="28.5" y="52.9" width="2" height="3.9"/>
	<rect x="23.2" y="55.9" width="12.8" height="2"/>
	<rect x="11.5" y="28.9" width="36.1" height="24.1"/>
	<rect x="51.2" y="22.1" width="17.3" height="35.7"/>
</g>
<g id="gfxwhite">
	<path style="fill:#FFFFFF;" d="M45.8,51.2H13.3V30.6h32.6V51.2z M13.8,50.7h31.6V31.1H13.8V50.7z"/>
	<rect x="54" y="25.7" style="fill:#FFFFFF;" width="11.8" height="2"/>
	<rect x="54" y="29.8" style="fill:#FFFFFF;" width="11.8" height="2"/>
	<circle style="fill:#FFFFFF;" cx="64.5" cy="40" r="1.2"/>
	<g>
		
			<line style="fill:none;stroke:#FFFFFF;stroke-linecap:round;stroke-linejoin:round;stroke-miterlimit:10;" x1="29.5" y1="38.3" x2="29.5" y2="33.6"/>
		<path style="fill:none;stroke:#FFFFFF;stroke-linecap:round;stroke-linejoin:round;stroke-miterlimit:10;" d="M26.7,36.3
			c-1.7,1-2.9,2.8-2.9,4.9c0,3.2,2.6,5.7,5.7,5.7s5.7-2.6,5.7-5.7c0-2.1-1.1-4-2.9-4.9"/>
	</g>
</g>
</svg>
