<?xml version="1.0" encoding="utf-8"?>
<!-- Generator: Adobe Illustrator 19.1.0, SVG Export Plug-In . SVG Version: 6.00 Build 0)  -->
<!DOCTYPE svg PUBLIC "-//W3C//DTD SVG 1.1//EN" "http://www.w3.org/Graphics/SVG/1.1/DTD/svg11.dtd">
<svg version="1.1" id="icon" xmlns="http://www.w3.org/2000/svg" xmlns:xlink="http://www.w3.org/1999/xlink" x="0px" y="0px"
	 viewBox="0 0 80 80" style="enable-background:new 0 0 80 80;" xml:space="preserve">
<g id="gfxblack">
	<rect x="12.5" y="17.1" width="55" height="16.5"/>
	<path d="M20.1,68.9c0,0.9-0.7,1.6-1.6,1.6S17,69.8,17,68.9H20.1z"/>
	<path d="M33.8,68.9c0,0.9-0.7,1.6-1.6,1.6c-0.9,0-1.6-0.7-1.6-1.6H33.8z"/>
	<path d="M34.6,68.9H16.3c-2.3,0-4.2-1.9-4.2-4.2V39.4c0-2.3,1.9-4.2,4.2-4.2h18.3c2.3,0,4.2,1.9,4.2,4.2v25.4
		C38.8,67.1,36.9,68.9,34.6,68.9z"/>
	<path d="M49.3,68.9c0,0.9-0.7,1.6-1.6,1.6c-0.9,0-1.6-0.7-1.6-1.6H49.3z"/>
	<path d="M63,68.9c0,0.9-0.7,1.6-1.6,1.6s-1.6-0.7-1.6-1.6H63z"/>
	<path d="M63.7,68.9H45.4c-2.3,0-4.2-1.9-4.2-4.2V39.4c0-2.3,1.9-4.2,4.2-4.2h18.3c2.3,0,4.2,1.9,4.2,4.2v25.4
		C67.9,67.1,66.1,68.9,63.7,68.9z"/>
</g>
<g id="gfxwhite">
	<circle style="fill:none;stroke:#FFFFFF;stroke-miterlimit:10;" cx="25.4" cy="55.7" r="9.7"/>
	<circle style="fill:#FFFFFF;" cx="58.2" cy="25.4" r="4.8"/>
	<path style="fill:#FFFFFF;" d="M39.4,19.1H17.7c-1.7,0-3.1,1.4-3.1,3.1v6.3c0,1.7,1.4,3.1,3.1,3.1h21.7c1.7,0,3.1-1.4,3.1-3.1v-6.3
		C42.5,20.5,41.1,19.1,39.4,19.1z M19.4,30.2v-9.7l4.9,4.9L19.4,30.2z M37.4,26.9c0,0.8-0.7,1.5-1.5,1.5c-0.8,0-1.5-0.7-1.5-1.5
		c0-0.8,0.7-1.5,1.5-1.5c0.3,0,0.5,0.1,0.8,0.2v-3.3L33.5,23v4.8c0,0.8-0.7,1.5-1.5,1.5c-0.8,0-1.5-0.7-1.5-1.5
		c0-0.8,0.7-1.5,1.5-1.5c0.3,0,0.5,0.1,0.8,0.2v-3.8c0-0.2,0.1-0.3,0.3-0.4l3.9-0.9c0.1,0,0.2,0,0.3,0.1c0.1,0.1,0.1,0.2,0.1,0.3
		V26.9z"/>
	<circle style="fill:#FFFFFF;" cx="25.4" cy="55.7" r="2.6"/>
	<circle style="fill:#FFFFFF;" cx="25.4" cy="39.7" r="2.6"/>
	<circle style="fill:none;stroke:#FFFFFF;stroke-miterlimit:10;" cx="54.6" cy="55.7" r="9.7"/>
	<circle style="fill:#FFFFFF;" cx="54.6" cy="55.7" r="2.6"/>
	<circle style="fill:#FFFFFF;" cx="54.6" cy="39.7" r="2.6"/>
</g>
</svg>
