<?xml version="1.0" encoding="utf-8"?>
<!-- Generator: Adobe Illustrator 19.1.0, SVG Export Plug-In . SVG Version: 6.00 Build 0)  -->
<!DOCTYPE svg PUBLIC "-//W3C//DTD SVG 1.1//EN" "http://www.w3.org/Graphics/SVG/1.1/DTD/svg11.dtd">
<svg version="1.1" id="icon" xmlns="http://www.w3.org/2000/svg" xmlns:xlink="http://www.w3.org/1999/xlink" x="0px" y="0px"
	 viewBox="0 0 80 80" style="enable-background:new 0 0 80 80;" xml:space="preserve">
<g id="gfxblack">
	<rect x="38.6" y="60.5" width="2.8" height="5.5"/>
	<rect x="31" y="64.7" width="18" height="2.8"/>
	<rect x="14.5" y="26.6" width="50.9" height="33.9"/>
	<path d="M44.8,24.8c0-2.6-2.1-4.8-4.8-4.8s-4.8,2.1-4.8,4.8H44.8z"/>
	<polygon points="40.1,23.4 30.7,14.1 31.2,13.6 40.1,22.4 49,13.5 49.5,14 	"/>
	<circle cx="31" cy="13.8" r="1.3"/>
	<circle cx="49" cy="13.8" r="1.3"/>
</g>
<g id="gfxwhite">
	<path style="fill:#FFFFFF;" d="M63,58.1H17v-29h46V58.1z M17.7,57.4h44.6V29.8H17.7V57.4z"/>
	<g>
		
			<line style="fill:none;stroke:#FFFFFF;stroke-linecap:round;stroke-linejoin:round;stroke-miterlimit:10;" x1="40" y1="41" x2="40" y2="36.3"/>
		<path style="fill:none;stroke:#FFFFFF;stroke-linecap:round;stroke-linejoin:round;stroke-miterlimit:10;" d="M37.1,39
			c-1.7,1-2.9,2.8-2.9,4.9c0,3.2,2.6,5.7,5.7,5.7s5.7-2.6,5.7-5.7c0-2.1-1.1-4-2.9-4.9"/>
	</g>
</g>
</svg>
