<?xml version="1.0" encoding="utf-8"?>
<!-- Generator: Adobe Illustrator 19.1.0, SVG Export Plug-In . SVG Version: 6.00 Build 0)  -->
<!DOCTYPE svg PUBLIC "-//W3C//DTD SVG 1.1//EN" "http://www.w3.org/Graphics/SVG/1.1/DTD/svg11.dtd">
<svg version="1.1" id="icon" xmlns="http://www.w3.org/2000/svg" xmlns:xlink="http://www.w3.org/1999/xlink" x="0px" y="0px"
	 viewBox="0 0 80 80" style="enable-background:new 0 0 80 80;" xml:space="preserve">
<g id="gfxblack">
	<path d="M40,12.5c-9.3,0-16.9,7.6-16.9,16.9c0,5.9,3.6,10.1,6.6,14.7c2.2,3.3,3.4,8.9,3.4,10.3h13.7c0-1.4,1.3-7,3.4-10.3
		c3-4.6,6.6-8.8,6.6-14.7C56.9,20.1,49.3,12.5,40,12.5z"/>
	<path d="M43.8,63.7c0,2.1-1.7,3.8-3.8,3.8c-2.1,0-3.8-1.7-3.8-3.8"/>
	<rect x="32" y="54.4" width="16" height="1.3"/>
	<polygon points="45.3,63.7 34.7,63.7 33.2,54.4 46.8,54.4 	"/>
</g>
<g id="gfxwhite">
	<path style="fill:#FFFFFF;" d="M42.6,54.4h-1.5c0-2,1.1-5.6,2.2-9.3c1.1-3.6,2.3-7.4,2.3-9.4v-5.1c0-2.3-0.3-3.9-0.5-4.7
		c-0.2,0.9-0.5,2.5-0.5,4.7c0,2.1-0.2,6.8-2,6.8c-1.8,0-2-4.8-2-6.8c0-2.3-0.3-3.9-0.5-4.7c-0.2,0.9-0.5,2.5-0.5,4.7
		c0,2.1-0.2,6.8-2,6.8c-1.8,0-2-4.8-2-6.8c0-2.3-0.3-3.9-0.5-4.7c-0.2,0.9-0.5,2.5-0.5,4.7v5.1c0,2,1.1,5.8,2.3,9.4
		c1.1,3.8,2.2,7.3,2.2,9.3h-1.5c0-1.8-1.1-5.4-2.2-8.9c-1.2-3.9-2.3-7.6-2.3-9.8v-5.1c0-2.1,0.2-6.8,2-6.8c1.8,0,2,4.8,2,6.8
		c0,2.3,0.3,3.9,0.5,4.7c0.2-0.9,0.5-2.5,0.5-4.7c0-2.1,0.2-6.8,2-6.8c1.8,0,2,4.8,2,6.8c0,2.3,0.3,3.9,0.5,4.7
		c0.2-0.9,0.5-2.5,0.5-4.7c0-2.1,0.2-6.8,2-6.8c1.8,0,2,4.8,2,6.8v5.1c0,2.2-1.1,5.9-2.3,9.8C43.7,49,42.6,52.6,42.6,54.4z"/>
</g>
</svg>
