<?xml version="1.0" encoding="utf-8"?>
<!-- Generator: Adobe Illustrator 19.1.0, SVG Export Plug-In . SVG Version: 6.00 Build 0)  -->
<!DOCTYPE svg PUBLIC "-//W3C//DTD SVG 1.1//EN" "http://www.w3.org/Graphics/SVG/1.1/DTD/svg11.dtd">
<svg version="1.1" id="icon" xmlns="http://www.w3.org/2000/svg" xmlns:xlink="http://www.w3.org/1999/xlink" x="0px" y="0px"
	 viewBox="0 0 80 80" style="enable-background:new 0 0 80 80;" xml:space="preserve">
<g id="gfxblack">
	<path d="M62.3,55.4V33.3c0-5.8-4.7-10.5-10.5-10.5H23c-5.8,0-10.5,4.7-10.5,10.5v22.1H62.3z"/>
	<polygon points="67.5,39.1 62.3,41.3 62.3,37.8 67.5,37.8 	"/>
	<g>
		
			<line style="stroke:#000000;stroke-width:4;stroke-linecap:round;stroke-miterlimit:10;" x1="22.2" y1="55.4" x2="22.2" y2="57.2"/>
		
			<line style="stroke:#000000;stroke-width:4;stroke-linecap:round;stroke-miterlimit:10;" x1="52.5" y1="55.4" x2="52.5" y2="57.2"/>
	</g>
	<path d="M50.9,26.3H24.1c-0.5,0-0.9-0.4-0.9-0.9c0-0.5,0.4-0.9,0.9-0.9h26.8c0.5,0,0.9,0.4,0.9,0.9C51.8,25.9,51.4,26.3,50.9,26.3z
		"/>
</g>
<g id="gfxwhite">
	<g>
		<g>
			<path style="fill:#FFFFFF;" d="M36.6,31.2c13.6,0,9.9,6,9.2,6v11.6H27.4V37.2C26.7,37.2,23,31.2,36.6,31.2 M36.6,30.2
				c-5.8,0-9.5,1.1-10.7,3.3c-0.6,1.1-0.6,2.5,0,3.6c0.1,0.2,0.3,0.4,0.5,0.6v11.1v1h1h18.4h1v-1V37.7c0.6-0.6,1-1.6,1-2.5
				c0-0.8-0.3-2.4-2.5-3.6C43.5,30.7,40.5,30.2,36.6,30.2L36.6,30.2C36.6,30.2,36.6,30.2,36.6,30.2L36.6,30.2z"/>
		</g>
	</g>
	<g>
		<path style="fill:#FFFFFF;" d="M39.8,43.9c-0.8-0.8-1.6-3,0-4.6c1.4-1.4,0.5-3.1,0-3.6l0.5-0.5c0.8,0.8,1.6,3,0,4.6
			c-1.4,1.4-0.5,3.1,0,3.6L39.8,43.9z"/>
		<path style="fill:#FFFFFF;" d="M36.4,43.9c-0.8-0.8-1.6-3,0-4.6c1.4-1.4,0.5-3.1,0-3.6l0.5-0.5c0.8,0.8,1.6,3,0,4.6
			c-1.4,1.4-0.5,3.1,0,3.6L36.4,43.9z"/>
		<path style="fill:#FFFFFF;" d="M32.9,43.9c-0.8-0.8-1.6-3,0-4.6c1.4-1.4,0.5-3.1,0-3.6l0.5-0.5c0.8,0.8,1.6,3,0,4.6
			c-1.4,1.4-0.5,3.1,0,3.6L32.9,43.9z"/>
	</g>
</g>
</svg>
