<?xml version="1.0" encoding="utf-8"?>
<!-- Generator: Adobe Illustrator 19.1.0, SVG Export Plug-In . SVG Version: 6.00 Build 0)  -->
<!DOCTYPE svg PUBLIC "-//W3C//DTD SVG 1.1//EN" "http://www.w3.org/Graphics/SVG/1.1/DTD/svg11.dtd">
<svg version="1.1" id="icon" xmlns="http://www.w3.org/2000/svg" xmlns:xlink="http://www.w3.org/1999/xlink" x="0px" y="0px"
	 viewBox="0 0 80 80" style="enable-background:new 0 0 80 80;" xml:space="preserve">
<g id="gfxblack">
	<polygon points="52.4,67.5 15.8,67.5 17.8,60 50.4,60 	"/>
	<path d="M46,15.8c0,0-0.1,0-0.2,0L44,12.5H25.1l-1.8,3.3l-5.4,0c0,0,3.3,3.3,3.3,11.3l-3.3,31.2h32.6c0.7-2.3,2.3-7.3,11.7-25.2
		C71.1,16.2,48.1,15.8,46,15.8z M35.1,23.4c0.6,0,1.1,0.5,1.1,1.1v7.3H34v-7.3C34,23.9,34.5,23.4,35.1,23.4z M36.2,32.6v9H34v-9
		H36.2z M35.1,50.9c-0.6,0-1.1-0.5-1.1-1.1v-7.3h2.2v7.3C36.2,50.4,35.7,50.9,35.1,50.9z M58.6,31.4c-2.5,4.7-4.4,8.5-5.9,11.6
		c-0.9-8.2-1.9-17.5-2.4-22.9c3.9,0.5,8.1,1.8,9.5,4.1C60.7,25.8,60.3,28.2,58.6,31.4z"/>
</g>
<g id="gfxwhite">
</g>
</svg>
