<?xml version="1.0" encoding="utf-8"?>
<!-- Generator: Adobe Illustrator 19.1.0, SVG Export Plug-In . SVG Version: 6.00 Build 0)  -->
<!DOCTYPE svg PUBLIC "-//W3C//DTD SVG 1.1//EN" "http://www.w3.org/Graphics/SVG/1.1/DTD/svg11.dtd">
<svg version="1.1" id="icon" xmlns="http://www.w3.org/2000/svg" xmlns:xlink="http://www.w3.org/1999/xlink" x="0px" y="0px"
	 viewBox="0 0 80 80" style="enable-background:new 0 0 80 80;" xml:space="preserve">
<g id="gfxblack">
	<path d="M68.5,24.6h-4v-7.2c0-0.7-0.6-1.3-1.3-1.3S62,16.8,62,17.5v7.2h-5.4v-7.2c0-0.7-0.6-1.3-1.3-1.3s-1.3,0.6-1.3,1.3v7.2h-4
		c0,4.6,3.5,8.5,7.9,9.1v19.4c0,0.9-0.4,1.8-1,2.4l-2.1,2.1c-1.7,1.7-4.4,1.7-6.1,0l-0.8-0.8l4.6-4.6V36.1L41.2,24.6H25L13.5,36.1
		v16.2L25,63.8h16.2l5.1-5.1l0.8,0.8c1.3,1.3,3.1,2,4.8,2c1.7,0,3.5-0.7,4.8-2l2.1-2.1c1.1-1.1,1.7-2.6,1.7-4.2V33.7
		C65,33.1,68.5,29.3,68.5,24.6z"/>
	<circle cx="32.2" cy="53" r="1.5"/>
	<path d="M32.2,49.6c-0.5,0-0.9-0.4-0.9-0.9v-1c0-2.2,1.8-4,4-4h1.5c1.2,0,2.2-1,2.2-2.2V38c0-1.2-1-2.2-2.2-2.2h-7.4
		c-1.2,0-2.2,1-2.2,2.2v1.6c0,0.5-0.4,0.9-0.9,0.9c-0.5,0-0.9-0.4-0.9-0.9V38c0-2.2,1.8-4,4-4h7.4c2.2,0,4,1.8,4,4v3.5
		c0,2.2-1.8,4-4,4h-1.5c-1.2,0-2.2,1-2.2,2.2v1C33.1,49.2,32.7,49.6,32.2,49.6z"/>
</g>
<g id="gfxwhite">
</g>
</svg>
