<?xml version="1.0" encoding="utf-8"?>
<!-- Generator: Adobe Illustrator 19.1.0, SVG Export Plug-In . SVG Version: 6.00 Build 0)  -->
<!DOCTYPE svg PUBLIC "-//W3C//DTD SVG 1.1//EN" "http://www.w3.org/Graphics/SVG/1.1/DTD/svg11.dtd">
<svg version="1.1" id="icon" xmlns="http://www.w3.org/2000/svg" xmlns:xlink="http://www.w3.org/1999/xlink" x="0px" y="0px"
	 viewBox="0 0 80 80" style="enable-background:new 0 0 80 80;" xml:space="preserve">
<g id="gfxblack">
	<path d="M57.6,59.9h-8c-1.7,0-3-1.4-3-3V15.5c0-1.6,1.3-3,3-3h8c1.7,0,3,1.4,3,3v41.4C60.6,58.6,59.3,59.9,57.6,59.9z"/>
	<path d="M34.2,19.9c0,22-3.3,30.2-7.4,30.2s-7.4-8.2-7.4-30.2c0-4.1,3.3-7.4,7.4-7.4S34.2,15.8,34.2,19.9z"/>
	<path d="M48.8,67.5H31.7c-3.2,0-5.8-2.6-5.8-5.8v-13h1.9v13c0,2.1,1.7,3.9,3.9,3.9h17.1c2.1,0,3.9-1.7,3.9-3.9v-1.7h1.9v1.7
		C54.6,64.9,52,67.5,48.8,67.5z"/>
</g>
<g id="gfxwhite">
	<g>
		<rect x="52.4" y="16" style="fill:#FFFFFF;" width="2.5" height="2.5"/>
		<rect x="54.9" y="18.6" style="fill:#FFFFFF;" width="2.5" height="2.5"/>
		<rect x="49.9" y="18.6" style="fill:#FFFFFF;" width="2.5" height="2.5"/>
		<rect x="52.4" y="21.1" style="fill:#FFFFFF;" width="2.5" height="2.5"/>
	</g>
	<circle style="fill:#FFFFFF;" cx="53.6" cy="28" r="2.1"/>
	<g>
		<circle style="fill:#FFFFFF;" cx="53.6" cy="36.2" r="1.2"/>
		<circle style="fill:#FFFFFF;" cx="50.3" cy="36.2" r="1.2"/>
		<circle style="fill:#FFFFFF;" cx="56.9" cy="36.2" r="1.2"/>
	</g>
	<g>
		<circle style="fill:#FFFFFF;" cx="53.6" cy="48.2" r="1.2"/>
		<circle style="fill:#FFFFFF;" cx="53.6" cy="52.7" r="1.2"/>
	</g>
	<circle style="fill:#FFFFFF;" cx="26.8" cy="19.9" r="3.8"/>
</g>
</svg>
